<svg width="44" height="44" viewBox="0 0 44 44" fill="none" xmlns="http://www.w3.org/2000/svg">
<mask id="path-1-inside-1_3001_1036" fill="white">
<path d="M14 27.27V26.27H30V27.27H14ZM14 22.5V21.5H30V22.5H14ZM14 17.73V16.73H30V17.73H14Z"/>
</mask>
<path d="M14 27.27V26.27H30V27.27H14ZM14 22.5V21.5H30V22.5H14ZM14 17.73V16.73H30V17.73H14Z" fill="#FDFDFD"/>
<path d="M14 27.27H13V28.27H14V27.27ZM14 26.27V25.27H13V26.27H14ZM30 26.27H31V25.27H30V26.27ZM30 27.27V28.27H31V27.27H30ZM14 22.5H13V23.5H14V22.5ZM14 21.5V20.5H13V21.5H14ZM30 21.5H31V20.5H30V21.5ZM30 22.5V23.5H31V22.5H30ZM14 17.73H13V18.73H14V17.73ZM14 16.73V15.73H13V16.73H14ZM30 16.73H31V15.73H30V16.73ZM30 17.73V18.73H31V17.73H30ZM14 27.27H15V26.27H14H13V27.27H14ZM14 26.27V27.27H30V26.27V25.27H14V26.27ZM30 26.27H29V27.27H30H31V26.27H30ZM30 27.27V26.27H14V27.27V28.27H30V27.27ZM14 22.5H15V21.5H14H13V22.5H14ZM14 21.5V22.5H30V21.5V20.5H14V21.5ZM30 21.5H29V22.5H30H31V21.5H30ZM30 22.5V21.5H14V22.5V23.5H30V22.5ZM14 17.73H15V16.73H14H13V17.73H14ZM14 16.73V17.73H30V16.73V15.73H14V16.73ZM30 16.73H29V17.73H30H31V16.73H30ZM30 17.73V16.73H14V17.73V18.73H30V17.73Z" fill="#FDFDFD" mask="url(#path-1-inside-1_3001_1036)"/>
</svg>
